<svg
  xmlns="http://www.w3.org/2000/svg"
  viewBox="0 0 24 24"
  width="24"
  height="24"
  fill="currentColor"
>
  <path d="M14 2H6C4.895 2 4 2.895 4 4V20C4 21.105 4.895 22 6 22H18C19.105 22 20 21.105 20 20V8L14 2ZM13 3.5L18.5 9H13V3.5ZM12 14H11V15H12V18H13V15H14V14H13V13H12V14ZM9 14H8V15H9V18H10V15H11V14H10V13H9V14Z" />
  <rect x="7" y="10" width="10" height="7" rx="1" ry="1" fill="white" />
  <circle cx="9.5" cy="13" r="1" fill="black" />
  <path d="M11 13L13 15L15 13L17 16H7L9.5 13.5L11 13Z" fill="none" stroke="black" stroke-width="1" />
</svg>


